<svg width="30" height="30" viewBox="0 0 30 30" fill="none" xmlns="http://www.w3.org/2000/svg">
<path d="M20.625 12.1875C20.625 11.9389 20.7238 11.7004 20.8996 11.5246C21.0754 11.3488 21.3139 11.25 21.5625 11.25H23.4375C23.6861 11.25 23.9246 11.3488 24.1004 11.5246C24.2762 11.7004 24.375 11.9389 24.375 12.1875V14.0625C24.375 14.3111 24.2762 14.5496 24.1004 14.7254C23.9246 14.9012 23.6861 15 23.4375 15H21.5625C21.3139 15 21.0754 14.9012 20.8996 14.7254C20.7238 14.5496 20.625 14.3111 20.625 14.0625V12.1875ZM15 12.1875C15 11.9389 15.0988 11.7004 15.2746 11.5246C15.4504 11.3488 15.6889 11.25 15.9375 11.25H17.8125C18.0611 11.25 18.2996 11.3488 18.4754 11.5246C18.6512 11.7004 18.75 11.9389 18.75 12.1875V14.0625C18.75 14.3111 18.6512 14.5496 18.4754 14.7254C18.2996 14.9012 18.0611 15 17.8125 15H15.9375C15.6889 15 15.4504 14.9012 15.2746 14.7254C15.0988 14.5496 15 14.3111 15 14.0625V12.1875ZM5.625 17.8125C5.625 17.5639 5.72377 17.3254 5.89959 17.1496C6.0754 16.9738 6.31386 16.875 6.5625 16.875H8.4375C8.68614 16.875 8.9246 16.9738 9.10041 17.1496C9.27623 17.3254 9.375 17.5639 9.375 17.8125V19.6875C9.375 19.9361 9.27623 20.1746 9.10041 20.3504C8.9246 20.5262 8.68614 20.625 8.4375 20.625H6.5625C6.31386 20.625 6.0754 20.5262 5.89959 20.3504C5.72377 20.1746 5.625 19.9361 5.625 19.6875V17.8125ZM11.25 17.8125C11.25 17.5639 11.3488 17.3254 11.5246 17.1496C11.7004 16.9738 11.9389 16.875 12.1875 16.875H14.0625C14.3111 16.875 14.5496 16.9738 14.7254 17.1496C14.9012 17.3254 15 17.5639 15 17.8125V19.6875C15 19.9361 14.9012 20.1746 14.7254 20.3504C14.5496 20.5262 14.3111 20.625 14.0625 20.625H12.1875C11.9389 20.625 11.7004 20.5262 11.5246 20.3504C11.3488 20.1746 11.25 19.9361 11.25 19.6875V17.8125Z" fill="#888888"/>
<path d="M6.5625 0C6.81114 0 7.0496 0.0987721 7.22541 0.274587C7.40123 0.450403 7.5 0.68886 7.5 0.9375V1.875H22.5V0.9375C22.5 0.68886 22.5988 0.450403 22.7746 0.274587C22.9504 0.0987721 23.1889 0 23.4375 0C23.6861 0 23.9246 0.0987721 24.1004 0.274587C24.2762 0.450403 24.375 0.68886 24.375 0.9375V1.875H26.25C27.2446 1.875 28.1984 2.27009 28.9016 2.97335C29.6049 3.67661 30 4.63044 30 5.625V26.25C30 27.2446 29.6049 28.1984 28.9016 28.9016C28.1984 29.6049 27.2446 30 26.25 30H3.75C2.75544 30 1.80161 29.6049 1.09835 28.9016C0.395088 28.1984 0 27.2446 0 26.25V5.625C0 4.63044 0.395088 3.67661 1.09835 2.97335C1.80161 2.27009 2.75544 1.875 3.75 1.875H5.625V0.9375C5.625 0.68886 5.72377 0.450403 5.89959 0.274587C6.0754 0.0987721 6.31386 0 6.5625 0V0ZM1.875 7.5V26.25C1.875 26.7473 2.07254 27.2242 2.42417 27.5758C2.77581 27.9275 3.25272 28.125 3.75 28.125H26.25C26.7473 28.125 27.2242 27.9275 27.5758 27.5758C27.9275 27.2242 28.125 26.7473 28.125 26.25V7.5H1.875Z" fill="#888888"/>
</svg>
