<svg width="32" height="32" viewBox="0 0 32 32" fill="none" xmlns="http://www.w3.org/2000/svg">
<path d="M16.5901 20.41L20.1701 24L16.5801 27.59L18.0001 29L23.0001 24L18.0001 19L16.5901 20.41Z" fill="black"/>
<path d="M23.5901 20.41L27.1701 24L23.5801 27.59L25.0001 29L30.0001 24L25.0001 19L23.5901 20.41Z" fill="black"/>
<path d="M14 23H4V7.91L15.43 15.82C15.5974 15.9361 15.7963 15.9984 16 15.9984C16.2037 15.9984 16.4026 15.9361 16.57 15.82L28 7.91V17H30V7C30 6.46957 29.7893 5.96086 29.4142 5.58579C29.0391 5.21071 28.5304 5 28 5H4C3.46957 5 2.96086 5.21071 2.58579 5.58579C2.21071 5.96086 2 6.46957 2 7V23C2 23.5304 2.21071 24.0391 2.58579 24.4142C2.96086 24.7893 3.46957 25 4 25H14V23ZM25.8 7L16 13.78L6.2 7H25.8Z" fill="black"/>
</svg>
