<svg width="30" height="30" viewBox="0 0 30 30" fill="none" xmlns="http://www.w3.org/2000/svg">
<path d="M18.2144 6.81824H25.7144V9.54551H18.2144V6.81824Z" fill="#888888"/>
<path d="M18.2144 13.6364H25.7144V16.3636H18.2144V13.6364Z" fill="#888888"/>
<path d="M18.2144 20.4546H25.7144V23.1819H18.2144V20.4546Z" fill="#888888"/>
<path d="M4.28564 6.81824H11.7856V9.54551H4.28564V6.81824Z" fill="#888888"/>
<path d="M4.28564 13.6364H11.7856V16.3636H4.28564V13.6364Z" fill="#888888"/>
<path d="M4.28564 20.4546H11.7856V23.1819H4.28564V20.4546Z" fill="#888888"/>
<path d="M27.8571 0H2.14286C1.57471 0.000722014 1.03 0.288291 0.628255 0.799597C0.226514 1.3109 0.000567296 2.00418 0 2.72727V27.2727C0.000567296 27.9958 0.226514 28.6891 0.628255 29.2004C1.03 29.7117 1.57471 29.9993 2.14286 30H27.8571C28.4253 29.9993 28.97 29.7117 29.3717 29.2004C29.7735 28.6891 29.9994 27.9958 30 27.2727V2.72727C29.9994 2.00418 29.7735 1.3109 29.3717 0.799597C28.97 0.288291 28.4253 0.000722014 27.8571 0ZM2.14286 2.72727H13.9286V27.2727H2.14286V2.72727ZM16.0714 27.2727V2.72727H27.8571V27.2727H16.0714Z" fill="#888888"/>
</svg>
