<svg width="281" height="136" viewBox="0 0 281 136" fill="none" xmlns="http://www.w3.org/2000/svg">
<path d="M3.43464 122.666C3.59627 122.581 16.2276 115.671 21.4644 112.805L21.1896 111.663L3.15179 121.524L3.43464 122.666Z" fill="white"/>
<path d="M4.79227 128.167C4.9135 128.094 19.6864 120.019 22.7897 118.331L22.5149 117.189L4.50134 127.038L4.79227 128.167Z" fill="white"/>
<path d="M1.93953 116.545C2.1254 116.448 12.4373 110.813 19.9854 106.684L19.7106 105.543L1.65668 115.416L1.93953 116.545Z" fill="white"/>
<path d="M0.290932 109.77C0.50105 109.661 8.29156 105.399 18.353 99.8973L18.0782 98.7558L0 108.629L0.290932 109.77Z" fill="white"/>
<path d="M21.4724 112.805C21.634 112.72 34.2815 105.895 39.5263 103.066L39.2516 101.924L21.1815 111.676L21.4724 112.805Z" fill="white"/>
<path d="M22.8139 118.318C22.9351 118.245 37.7323 110.267 40.8436 108.591L40.5689 107.45L22.5311 117.189L22.8139 118.318Z" fill="white"/>
<path d="M20.0016 106.672C20.1874 106.575 30.5155 101.001 38.0717 96.9207L37.7969 95.7792L19.7106 105.543L20.0016 106.672Z" fill="white"/>
<path d="M18.3611 99.8839C18.5712 99.7746 26.3698 95.5606 36.4473 90.1201L36.1726 88.9786L18.0701 98.7545L18.3611 99.8839Z" fill="white"/>
<path d="M39.5344 103.053C39.6961 102.968 52.3678 96.2164 57.6126 93.4233L57.3459 92.2818L39.2516 101.912L39.5344 103.053Z" fill="white"/>
<path d="M40.8598 108.579C40.981 108.518 55.8024 100.625 58.9138 98.9731L58.6471 97.8315L40.577 107.45L40.8598 108.579Z" fill="white"/>
<path d="M38.0798 96.9208C38.2657 96.8236 48.6099 91.3224 56.1823 87.2906L55.9156 86.1491L37.8051 95.7914L38.0798 96.9208Z" fill="white"/>
<path d="M36.4635 90.108C36.6736 89.9987 44.4884 85.8334 54.5821 80.4658L54.3154 79.3242L36.1807 88.9786L36.4635 90.108Z" fill="white"/>
<path d="M57.6288 93.4233C57.7904 93.3383 70.4783 86.6712 75.7393 83.9146L75.4726 82.773L57.3459 92.2939L57.6288 93.4233Z" fill="white"/>
<path d="M58.938 98.9488C59.0592 98.8881 73.9048 91.0917 77.0162 89.4522L76.7495 88.3107L58.6552 97.8194L58.938 98.9488Z" fill="white"/>
<path d="M56.1903 87.2785C56.3762 87.1813 66.7285 81.7408 74.317 77.7576L74.0503 76.6161L55.9075 86.1491L56.1903 87.2785Z" fill="white"/>
<path d="M54.5983 80.467C54.8084 80.3577 62.6312 76.253 72.7411 70.934L72.4744 69.7924L54.3154 79.3254L54.5983 80.467Z" fill="white"/>
<path d="M75.7474 83.9025C75.9091 83.8174 88.6212 77.2354 93.8822 74.503L93.6236 73.3494L75.4727 82.7488L75.7474 83.9025Z" fill="white"/>
<path d="M77.0405 89.4401C77.1617 89.3794 92.0315 81.6801 95.151 80.065L94.8924 78.9113L76.7657 88.2986L77.0405 89.4401Z" fill="white"/>
<path d="M74.3332 77.7455C74.5191 77.6483 84.8876 72.2807 92.4841 68.3461L92.2255 67.1924L74.0584 76.604L74.3332 77.7455Z" fill="white"/>
<path d="M72.7499 70.9206C72.96 70.8113 80.799 66.7552 90.9251 61.5091L90.6665 60.3554L72.4832 69.7791L72.7499 70.9206Z" fill="white"/>
<path d="M93.8984 74.5031C94.06 74.418 106.788 67.921 112.057 65.2251L111.799 64.0714L93.6236 73.3615L93.8984 74.5031Z" fill="white"/>
<path d="M95.1752 80.0529C95.2964 79.9922 110.182 72.39 113.31 70.787L113.051 69.6334L94.9005 78.8992L95.1752 80.0529Z" fill="white"/>
<path d="M92.4922 68.3461C92.6781 68.249 103.063 62.9421 110.675 59.056L110.417 57.9023L92.2255 67.1925L92.4922 68.3461Z" fill="white"/>
<path d="M90.9405 61.5091C91.1507 61.3998 98.9977 57.3923 109.14 52.2068L108.881 51.0531L90.6658 60.3554L90.9405 61.5091Z" fill="white"/>
<path d="M112.074 65.2251C112.154 65.1887 115.379 63.5492 119.242 61.6062C123.113 59.6753 127.622 57.4165 130.265 56.105L130.014 54.9513C123.929 57.9509 117.868 61.0112 111.799 64.0836L112.074 65.2251Z" fill="white"/>
<path d="M113.334 70.7749C113.399 70.7384 117.149 68.844 121.286 66.7552C125.416 64.6908 129.925 62.4441 131.493 61.6669L131.243 60.5132C125.182 63.5007 119.129 66.5609 113.068 69.6333L113.334 70.7749Z" fill="white"/>
<path d="M110.683 59.0438C110.869 58.9467 121.286 53.7248 128.907 49.8995L128.657 48.7458C122.555 51.7575 116.478 54.8178 110.417 57.9023L110.683 59.0438Z" fill="white"/>
<path d="M109.148 52.2081C109.358 52.0988 117.23 48.152 127.412 43.0516L127.162 41.8979C121.044 44.9096 114.959 47.9941 108.882 51.0666L109.148 52.2081Z" fill="white"/>
<path d="M130.281 56.0807C130.362 56.0443 133.594 54.4534 137.474 52.5468C141.361 50.7009 145.878 48.4907 148.545 47.2642L148.303 46.1105C142.193 48.9886 136.1 51.9275 130.022 54.9392L130.281 56.0807Z" fill="white"/>
<path d="M131.509 61.6548C131.574 61.6184 135.332 59.7846 139.47 57.7444C143.615 55.765 148.125 53.5669 149.701 52.8626L149.458 51.7089C143.373 54.5749 137.304 57.4894 131.243 60.5011L131.509 61.6548Z" fill="white"/>
<path d="M128.923 49.8994C129.02 49.8509 131.671 48.5393 135.267 46.7785C138.872 45.054 143.397 42.8438 147.252 41.0587L147.01 39.905C140.876 42.7952 134.75 45.7341 128.665 48.7701L128.923 49.8994Z" fill="white"/>
<path d="M127.42 43.0381C127.525 42.9895 129.554 41.9816 132.835 40.3664C136.124 38.7634 140.674 36.5654 145.814 34.1487L145.571 32.9951C139.405 35.8975 133.263 38.8606 127.154 41.8844L127.42 43.0381Z" fill="white"/>
<path d="M148.553 47.2642C148.634 47.2277 151.883 45.7219 155.786 43.9246C159.697 42.188 164.255 40.1721 166.922 38.9941L166.704 37.8283L157.483 41.8844L148.303 46.1105L148.553 47.2642Z" fill="white"/>
<path d="M149.725 52.8626C149.79 52.8383 153.564 51.0896 157.709 49.1708C161.871 47.3371 166.413 45.3333 167.989 44.629L167.771 43.4632L158.606 47.495L149.474 51.6968L149.725 52.8626Z" fill="white"/>
<path d="M147.26 41.0465C147.357 40.9979 150.032 39.7592 153.653 38.0955C157.265 36.4075 161.863 34.4523 165.734 32.7279L165.516 31.5621L156.247 35.6424L147.018 39.8928L147.26 41.0465Z" fill="white"/>
<path d="M145.83 34.15C145.935 34.1014 147.988 33.1542 151.301 31.6241C154.598 30.0575 159.229 28.0902 164.417 25.7828L164.199 24.617L154.865 28.7217L145.587 32.9963L145.83 34.15Z" fill="white"/>
<path d="M166.93 38.9821C167.011 38.9457 170.292 37.5855 174.22 35.9583C175.206 35.5454 176.224 35.1203 177.25 34.7074C178.277 34.3067 179.311 33.9181 180.297 33.5295C182.277 32.7644 184.103 32.06 185.453 31.55L185.259 30.3599C182.156 31.5743 179.053 32.7158 175.957 33.9788L166.696 37.8284L166.93 38.9821Z" fill="white"/>
<path d="M168.013 44.629C168.078 44.6047 171.876 43.026 176.054 41.2894C180.232 39.5528 184.815 37.877 186.399 37.2334L186.205 36.0554C183.126 37.2576 180.047 38.3992 176.976 39.6378L167.779 43.451L168.013 44.629Z" fill="white"/>
<path d="M165.742 32.7158C165.839 32.6794 168.547 31.55 172.199 30.032C175.844 28.4654 180.491 26.7288 184.402 25.2108L184.209 24.0329C181.081 25.2473 177.945 26.4131 174.834 27.6761L165.508 31.55L165.742 32.7158Z" fill="white"/>
<path d="M164.426 25.7695C164.531 25.7209 166.608 24.8587 169.962 23.4621C171.643 22.782 173.631 21.9077 175.877 21.0333C178.124 20.1711 180.605 19.2117 183.239 18.1916L183.045 17.0137C179.894 18.2402 176.726 19.4182 173.59 20.6933L164.191 24.5915L164.426 25.7695Z" fill="white"/>
<path d="M185.469 31.5378C185.51 31.5257 186.358 31.1978 187.684 30.6877C189.017 30.2141 190.835 29.5826 192.823 28.8783C194.811 28.1982 196.953 27.3724 198.957 26.7774C200.961 26.1459 202.804 25.5751 204.162 25.138L204 23.9478C197.721 25.8423 191.482 28.0525 185.259 30.3598L185.469 31.5378Z" fill="white"/>
<path d="M186.423 37.2211C186.439 37.209 186.69 37.124 187.118 36.954C187.554 36.7961 188.16 36.5289 188.912 36.2861C190.407 35.7639 192.411 35.0595 194.52 34.3187C198.723 32.7643 203.345 31.4285 204.946 30.8941L204.784 29.704C198.569 31.5864 192.387 33.7723 186.221 36.0553L186.423 37.2211Z" fill="white"/>
<path d="M184.419 25.2108C184.467 25.1865 185.17 24.9194 186.326 24.4822C187.482 24.0693 189.098 23.5107 190.948 22.8549C192.799 22.2113 194.892 21.4705 197.01 20.7297C199.143 20.0618 201.309 19.3817 203.289 18.7624L203.127 17.5723C196.775 19.491 190.48 21.7255 184.209 24.045L184.419 25.2108Z" fill="white"/>
<path d="M183.255 18.2037C183.311 18.1795 183.861 17.973 184.815 17.5965C185.776 17.2322 187.158 16.7586 188.855 16.1636C190.561 15.5685 192.589 14.852 194.852 14.0627C197.123 13.2854 199.652 12.5325 202.319 11.6824L202.157 10.4923C195.733 12.4354 189.373 14.682 183.045 17.0258L183.255 18.2037Z" fill="white"/>
<path d="M204.17 25.1379C204.21 25.1258 205.067 24.8586 206.408 24.4336C207.75 23.9843 209.592 23.5107 211.597 22.9642C213.601 22.4177 215.775 21.8226 217.787 21.2762C219.807 20.8147 221.666 20.3775 223.048 20.0618L222.927 18.8595L218.175 19.9403L213.447 21.2276C210.295 22.0777 207.136 22.9156 204.008 23.96L204.17 25.1379Z" fill="white"/>
<path d="M204.97 30.882C205.002 30.8699 205.98 30.5663 207.475 30.0927C208.97 29.5826 210.999 29.109 213.124 28.5018C215.249 27.931 217.464 27.2996 219.355 26.8259C221.254 26.4009 222.814 26.0366 223.622 25.8544L223.501 24.6522L218.805 25.7208L214.126 26.9838C211.007 27.8217 207.887 28.6597 204.792 29.6798L204.97 30.882Z" fill="white"/>
<path d="M203.305 18.7502C203.353 18.7381 204.065 18.5073 205.236 18.143C206.4 17.7544 208.025 17.2929 209.908 16.795C211.782 16.285 213.9 15.7021 216.049 15.1192C218.191 14.4998 220.397 14.0991 222.401 13.6133L222.28 12.4111L217.464 13.504L212.679 14.8034C209.487 15.6656 206.295 16.5157 203.135 17.5601L203.305 18.7502Z" fill="white"/>
<path d="M202.335 11.6825C202.392 11.6703 202.949 11.4881 203.919 11.1845C204.889 10.881 206.279 10.4316 208.008 9.9823C211.475 9.0715 216.219 7.62637 221.666 6.48484L221.545 5.28259L216.664 6.38769L211.815 7.69924C208.582 8.5736 205.35 9.43582 202.157 10.4923L202.335 11.6825Z" fill="white"/>
<path d="M223.056 20.0618C223.096 20.0496 223.961 19.8553 225.311 19.5517C226.668 19.2481 228.511 18.7867 230.539 18.4709C234.588 17.7666 239.3 16.8436 242.08 16.6008L242.007 15.3864C238.807 15.7143 235.631 16.3579 232.447 16.9044C230.855 17.208 229.263 17.4387 227.679 17.7909L222.927 18.8717L223.056 20.0618Z" fill="white"/>
<path d="M223.654 25.8666C223.686 25.8544 224.672 25.6358 226.184 25.2958C226.935 25.1258 227.824 24.9194 228.786 24.7008C229.756 24.5307 230.798 24.3364 231.865 24.1421C233.998 23.7657 236.237 23.3649 238.136 23.0249C240.035 22.6727 241.619 22.5634 242.427 22.4298L242.355 21.2155C239.203 21.5312 236.067 22.1748 232.923 22.7213C231.356 23.0128 229.78 23.2435 228.212 23.5957L223.517 24.6643L223.654 25.8666Z" fill="white"/>
<path d="M222.401 13.6255C222.45 13.6133 223.169 13.4555 224.357 13.1762C225.545 12.9333 227.169 12.484 229.069 12.1682C230.968 11.8282 233.109 11.4517 235.275 11.0631C236.358 10.8688 237.457 10.6866 238.532 10.4923C239.615 10.3588 240.674 10.2252 241.684 10.1037L241.611 8.88934C238.362 9.21723 235.138 9.873 231.913 10.4316C230.305 10.7352 228.681 10.9781 227.073 11.3303L222.256 12.4232L222.401 13.6255Z" fill="white"/>
<path d="M221.682 6.48485C221.795 6.46056 223.945 5.9748 227.436 5.18544C229.19 4.8697 231.275 4.50538 233.61 4.09249C234.774 3.88604 236.002 3.66745 237.279 3.43672C238.556 3.21812 239.898 3.09669 241.272 2.90238L241.199 1.68799C237.894 2.02802 234.629 2.68379 231.348 3.25456C229.715 3.55816 228.067 3.80103 226.434 4.16535L221.553 5.27045L221.682 6.48485Z" fill="white"/>
<path d="M242.088 16.5886C242.169 16.5764 245.563 16.1636 249.62 15.6778C251.656 15.5442 253.863 15.3863 255.899 15.2528C257.944 15.1192 259.819 14.9613 261.217 14.9977L261.2 13.7833C254.792 14.0141 248.383 14.4755 241.999 15.3742L242.088 16.5886Z" fill="white"/>
<path d="M242.452 22.4299C242.484 22.4299 243.478 22.3084 244.989 22.1141C245.749 22.017 246.638 21.9077 247.607 21.7862C248.577 21.6648 249.62 21.5191 250.695 21.4705C252.836 21.3248 255.083 21.179 256.99 21.0454C257.944 20.9847 258.816 20.924 259.552 20.8754C260.287 20.8633 260.885 20.8633 261.289 20.8633L261.273 19.6489C254.962 19.8796 248.658 20.329 242.363 21.2155L242.452 22.4299Z" fill="white"/>
<path d="M241.7 10.1038C241.797 10.0916 244.617 9.73944 248.432 9.26582C250.339 9.08366 252.505 8.97437 254.687 8.8165C256.877 8.7072 259.099 8.44003 261.136 8.48861L261.12 7.27422C254.606 7.50495 248.092 7.97856 241.611 8.88936L241.7 10.1038Z" fill="white"/>
<path d="M241.272 2.90319C241.385 2.89104 243.567 2.62388 247.09 2.17455C248.852 1.90738 250.969 1.85881 253.321 1.6645C254.501 1.5795 255.737 1.50663 257.03 1.42163C258.323 1.32447 259.665 1.23947 261.047 1.25161L261.031 0.0372162C254.396 0.280095 247.769 0.753709 241.183 1.68879L241.272 2.90319Z" fill="white"/>
<path d="M261.233 14.9978C261.314 14.9978 264.716 14.9735 268.789 14.9492C269.807 14.9127 270.866 14.9978 271.925 15.0585C272.983 15.1192 274.05 15.1799 275.068 15.2406C277.113 15.3621 278.996 15.4714 280.386 15.5564L280.434 14.342L270.817 13.7834C267.609 13.6984 264.409 13.7955 261.2 13.7955L261.233 14.9978Z" fill="white"/>
<path d="M261.314 20.8633C261.378 20.8633 265.282 20.839 269.573 20.8147C273.856 21.0576 278.527 21.3247 280.151 21.4098L280.2 20.1954L270.753 19.6489C267.601 19.5639 264.441 19.661 261.289 19.6489L261.314 20.8633Z" fill="white"/>
<path d="M261.152 8.48862C261.249 8.48862 264.086 8.46433 267.916 8.44005C269.831 8.36718 271.997 8.54934 274.187 8.67078C276.385 8.80436 278.608 8.9258 280.644 9.04724L280.693 7.83285L270.906 7.26208C267.641 7.16493 264.385 7.27423 261.12 7.26208L261.152 8.48862Z" fill="white"/>
<path d="M261.063 1.26215C261.176 1.26215 263.374 1.25001 266.93 1.22572C267.819 1.22572 268.789 1.21358 269.84 1.21358C270.89 1.23787 272.005 1.32287 273.193 1.38359C275.561 1.51718 278.171 1.67505 280.943 1.84506L280.992 0.630669L271.011 0.0477599C267.682 -0.0493917 264.36 0.0599038 261.039 0.0477599L261.063 1.26215Z" fill="white"/>
</svg>
