<svg width="32" height="34" viewBox="0 0 32 34" fill="none" xmlns="http://www.w3.org/2000/svg">
<path d="M0.000690517 11.9985C0.00120082 9.35642 0.873522 6.78834 2.48233 4.69266C4.09115 2.59698 6.34652 1.09084 8.89858 0.407875C11.4506 -0.275086 14.1567 -0.0966888 16.5971 0.915393C19.0374 1.92748 21.0756 3.71667 22.3954 6.00542C23.7152 8.29417 24.2429 10.9545 23.8966 13.5738C23.5504 16.1931 22.3495 18.6249 20.4802 20.492C18.611 22.3591 16.1779 23.557 13.5584 23.9001C10.9389 24.2431 8.27945 23.712 5.99256 22.3892L1.31666 23.9493C1.14391 24.007 0.958687 24.0164 0.780982 23.9765C0.603278 23.9366 0.43984 23.849 0.308309 23.723C0.176777 23.597 0.0821477 23.4375 0.034632 23.2616C-0.0128837 23.0858 -0.0114806 22.9003 0.0386898 22.7252L1.46266 17.7429C0.500712 15.9813 -0.00207573 14.0057 0.000690517 11.9985ZM9.0005 8.9983C8.73529 8.9983 8.48094 9.10366 8.2934 9.29121C8.10587 9.47876 8.00052 9.73313 8.00052 9.99837C8.00052 10.2636 8.10587 10.518 8.2934 10.7055C8.48094 10.8931 8.73529 10.9984 9.0005 10.9984H15.0004C15.2656 10.9984 15.5199 10.8931 15.7075 10.7055C15.895 10.518 16.0003 10.2636 16.0003 9.99837C16.0003 9.73313 15.895 9.47876 15.7075 9.29121C15.5199 9.10366 15.2656 8.9983 15.0004 8.9983H9.0005ZM13.0004 12.9986H9.0005C8.73529 12.9986 8.48094 13.1039 8.2934 13.2915C8.10587 13.479 8.00052 13.7334 8.00052 13.9986C8.00052 14.2639 8.10587 14.5182 8.2934 14.7058C8.48094 14.8933 8.73529 14.9987 9.0005 14.9987H13.0004C13.2656 14.9987 13.52 14.8933 13.7075 14.7058C13.895 14.5182 14.0004 14.2639 14.0004 13.9986C14.0004 13.7334 13.895 13.479 13.7075 13.2915C13.52 13.1039 13.2656 12.9986 13.0004 12.9986ZM20.5522 27.8936L15.7484 25.4934C16.6283 25.2474 17.4743 24.9194 18.2743 24.5174L21.0002 25.8814L30 21.3811V19.999C30 19.4686 29.7893 18.9598 29.4143 18.5847C29.0392 18.2096 28.5305 17.9989 28.0001 17.9989H24.6522C24.9582 17.3589 25.2141 16.6888 25.4201 15.9988H28.0001C29.0609 15.9988 30.0783 16.4202 30.8285 17.1704C31.5786 17.9206 32 18.9381 32 19.999V29.9997C32 31.0607 31.5786 32.0781 30.8285 32.8283C30.0783 33.5785 29.0609 34 28.0001 34H14.0004C12.9395 34 11.9222 33.5785 11.172 32.8283C10.4219 32.0781 10.0005 31.0607 10.0005 29.9997V25.8594C10.6545 25.9515 11.3204 25.9995 12.0004 25.9995V29.9997C12.0004 30.5302 12.2111 31.0389 12.5862 31.414C12.9613 31.7891 13.47 31.9999 14.0004 31.9999H28.0001C28.5305 31.9999 29.0392 31.7891 29.4143 31.414C29.7893 31.0389 30 30.5302 30 29.9997V23.6173L21.4482 27.8936C21.3092 27.9633 21.1558 27.9996 21.0002 27.9996C20.8447 27.9996 20.6913 27.9633 20.5522 27.8936Z" fill="black"/>
</svg>
