<svg width="25" height="25" viewBox="0 0 25 25" fill="none" xmlns="http://www.w3.org/2000/svg">
<path d="M0 12.5C0 9.18479 1.31696 6.00537 3.66117 3.66117C6.00537 1.31696 9.18479 0 12.5 0C15.8152 0 18.9946 1.31696 21.3388 3.66117C23.683 6.00537 25 9.18479 25 12.5C25 15.8152 23.683 18.9946 21.3388 21.3388C18.9946 23.683 15.8152 25 12.5 25C9.18479 25 6.00537 23.683 3.66117 21.3388C1.31696 18.9946 0 15.8152 0 12.5ZM7.96731 2.94231C6.56436 3.60949 5.32494 4.57647 4.33654 5.775L5.58077 9.82115L7.51538 10.4654L11.5385 7.40769V5.32308L7.96731 2.94038V2.94231ZM1.99231 13.7192C2.18462 15.3827 2.76154 16.9308 3.63269 18.2673H7.29423L8.51538 17.0462L6.93269 12.2962L4.96346 11.6404L1.99231 13.7173V13.7192ZM10.3577 22.8577C11.7711 23.1486 13.2289 23.1486 14.6423 22.8577L16.1615 19.4423L14.9865 18.2692H10.0135L8.84038 19.4423L10.3577 22.8596V22.8577ZM21.3654 18.2692C22.2115 16.9731 22.7808 15.4808 22.9885 13.875L20.0192 11.6481L18.0673 12.2981L16.4846 17.0481L17.7058 18.2692H21.3654ZM20.6385 5.74423C19.6542 4.55904 18.4238 3.60228 17.0327 2.94038L13.4615 5.32308V7.40769L17.4846 10.4654L19.4154 9.82308L20.6385 5.74423Z" fill="black"/>
</svg>
