<svg width="30" height="30" viewBox="0 0 30 30" fill="none" xmlns="http://www.w3.org/2000/svg">
<path d="M25.7543 22.0597C25.9109 22.2176 25.9987 22.4311 25.9987 22.6535C25.9987 22.8759 25.9109 23.0893 25.7543 23.2473L23.2514 25.7524C23.0934 25.909 22.88 25.9968 22.6575 25.9968C22.4351 25.9968 22.2217 25.909 22.0637 25.7524L15.0011 18.6927L7.94088 25.7524C7.78288 25.909 7.56945 25.9968 7.34701 25.9968C7.12458 25.9968 6.91115 25.909 6.75315 25.7524L4.24784 23.2473C4.09127 23.0893 4.00343 22.8759 4.00343 22.6535C4.00343 22.4311 4.09127 22.2176 4.24784 22.0597L11.3081 15L4.24784 7.94035C4.09124 7.7819 4.00342 7.56812 4.00342 7.34535C4.00342 7.12259 4.09124 6.9088 4.24784 6.75036L6.75315 4.2476C6.83111 4.16957 6.92369 4.10767 7.02559 4.06544C7.12749 4.0232 7.23671 4.00146 7.34701 4.00146C7.45732 4.00146 7.56654 4.0232 7.66844 4.06544C7.77034 4.10767 7.86292 4.16957 7.94088 4.2476L15.0011 11.3073L22.0613 4.2476C22.1393 4.16957 22.2318 4.10767 22.3337 4.06544C22.4356 4.0232 22.5449 4.00146 22.6552 4.00146C22.7655 4.00146 22.8747 4.0232 22.9766 4.06544C23.0785 4.10767 23.1711 4.16957 23.249 4.2476L25.7543 6.75036C25.9109 6.9088 25.9988 7.12259 25.9988 7.34535C25.9988 7.56812 25.9109 7.7819 25.7543 7.94035L18.6941 15L25.7543 22.0597Z" fill="white"/>
<path d="M29.1287 0H0.873672C0.642151 0.000623159 0.420291 0.0928633 0.256581 0.256561C0.0928706 0.420258 0.000623208 0.642101 0 0.873603V29.1264C0 29.6081 0.391972 30 0.873672 30H29.1287C29.608 30 30 29.6081 30 29.1264V0.873603C30.0003 0.758991 29.978 0.645445 29.9344 0.539468C29.8907 0.433491 29.8266 0.337168 29.7456 0.256015C29.6647 0.174862 29.5685 0.110476 29.4627 0.0665445C29.3568 0.0226129 29.2433 -4.20865e-07 29.1287 0ZM25.7544 22.0597C25.911 22.2176 25.9988 22.4311 25.9988 22.6535C25.9988 22.8759 25.911 23.0893 25.7544 23.2473L23.2515 25.7524C23.0935 25.909 22.88 25.9968 22.6576 25.9968C22.4352 25.9968 22.2218 25.909 22.0638 25.7524L15.0012 18.6927L7.94097 25.7524C7.78297 25.909 7.56954 25.9968 7.34711 25.9968C7.12467 25.9968 6.91124 25.909 6.75325 25.7524L4.24793 23.2473C4.09137 23.0893 4.00353 22.8759 4.00353 22.6535C4.00353 22.4311 4.09137 22.2176 4.24793 22.0597L11.3081 15L4.24793 7.94034C4.09133 7.7819 4.00351 7.56811 4.00351 7.34535C4.00351 7.12258 4.09133 6.9088 4.24793 6.75035L6.75325 4.2476C6.83121 4.16957 6.92378 4.10767 7.02568 4.06543C7.12758 4.0232 7.2368 4.00146 7.34711 4.00146C7.45741 4.00146 7.56664 4.0232 7.66853 4.06543C7.77043 4.10767 7.86301 4.16957 7.94097 4.2476L15.0012 11.3073L22.0614 4.2476C22.1393 4.16957 22.2319 4.10767 22.3338 4.06543C22.4357 4.0232 22.5449 4.00146 22.6553 4.00146C22.7656 4.00146 22.8748 4.0232 22.9767 4.06543C23.0786 4.10767 23.1712 4.16957 23.2491 4.2476L25.7544 6.75035C25.911 6.9088 25.9988 7.12258 25.9988 7.34535C25.9988 7.56811 25.911 7.7819 25.7544 7.94034L18.6942 15L25.7544 22.0597Z" fill="#ED6C30"/>
</svg>
