<svg width="12" height="23" viewBox="0 0 12 23" fill="none" xmlns="http://www.w3.org/2000/svg">
<path d="M10.5984 4.71875C10.7255 8.59292 7.25634 10.0312 6.09009 12.7229V15.875C6.09009 16.4542 5.62759 16.9167 5.04842 16.9167C4.47342 16.9167 4.00675 16.4542 4.00675 15.875V11.7646C5.46217 9.20542 8.33175 8.6525 8.45259 4.65625C8.45259 2.29792 5.72634 2.09333 5.12425 2.08333H5.10342C2.7005 2.57792 2.54717 4.1625 2.06634 6.06208C1.78842 6.69583 1.41467 6.91417 0.858003 6.90792C0.723372 6.88389 0.594795 6.83358 0.479621 6.75984C0.364447 6.6861 0.264933 6.59038 0.186768 6.47817C0.108603 6.36595 0.0533189 6.23943 0.0240752 6.10583C-0.00516849 5.97224 -0.00779843 5.83419 0.0163361 5.69958C0.261336 4.55292 0.33217 2.93333 0.995503 2.15708C2.12467 0.84875 3.00342 0.0916668 4.82009 0.00416676C4.92009 0.00416676 5.02425 0 5.12425 0C5.16175 0 5.19925 9.54606e-08 5.23675 0.00416676C8.68259 0.104167 10.4868 1.25083 10.5993 4.72083L10.5984 4.71875Z" fill="#D22F27"/>
<path d="M4.86084 22.0896C5.5512 22.0896 6.11084 21.5299 6.11084 20.8396C6.11084 20.1492 5.5512 19.5896 4.86084 19.5896C4.17048 19.5896 3.61084 20.1492 3.61084 20.8396C3.61084 21.5299 4.17048 22.0896 4.86084 22.0896Z" fill="#D22F27"/>
<path d="M5.00684 21.9333C5.6109 21.9333 6.10059 21.4436 6.10059 20.8396C6.10059 20.2355 5.6109 19.7458 5.00684 19.7458C4.40277 19.7458 3.91309 20.2355 3.91309 20.8396C3.91309 21.4436 4.40277 21.9333 5.00684 21.9333Z" stroke="black" stroke-width="0.729167" stroke-miterlimit="10" stroke-linecap="round" stroke-linejoin="round"/>
<path d="M5.57133 0.835417C8.30883 0.835417 10.5838 2.265 10.5838 5.08958C10.5838 6.61917 10.3838 7.80875 9.038 9.15417C7.38967 10.8025 6.04466 11.7983 6.03467 12.7162C6.00758 15.1437 6.03258 16.1654 6.033 16.1996C6.03422 16.3626 5.97065 16.5195 5.85626 16.6357C5.74187 16.7518 5.58603 16.8178 5.423 16.8192H5.418C5.25575 16.8192 5.10008 16.7551 4.98489 16.6408C4.86969 16.5266 4.80432 16.3714 4.803 16.2092C4.803 16.175 4.778 15.1421 4.80508 12.7025C4.81966 11.3562 6.31758 10.1496 8.29883 8.16917C9.20633 7.26333 9.32966 6.20417 9.32966 5.19958C9.32966 3.83208 8.09425 2.03833 5.58633 2.03833C3.36216 2.03833 2.04466 3.48292 2.04466 6.01833C2.05351 6.1006 2.04518 6.1838 2.02019 6.26268C1.9952 6.34156 1.95411 6.41438 1.8995 6.47655C1.8449 6.53871 1.77798 6.58886 1.70298 6.62381C1.62799 6.65876 1.54655 6.67775 1.46383 6.67958C1.37279 6.67764 1.28319 6.6565 1.2009 6.61753C1.1186 6.57857 1.04545 6.52266 0.986257 6.45347C0.927059 6.38428 0.883141 6.30337 0.857376 6.21604C0.831612 6.1287 0.824582 6.03691 0.836748 5.94667C0.836748 1.82917 3.87425 0.834167 5.57008 0.834167L5.57133 0.835417ZM5.57008 0.00083367C3.50175 0.00083367 0.00341426 1.25292 0.00341426 5.94667C-0.0102789 6.14697 0.0173107 6.34795 0.0844726 6.53716C0.151634 6.72636 0.256938 6.89976 0.393857 7.0466C0.530776 7.19344 0.696393 7.3106 0.880444 7.39081C1.0645 7.47102 1.26306 7.51259 1.46383 7.51292C1.65612 7.51186 1.84621 7.47187 2.02263 7.39536C2.19905 7.31885 2.35815 7.20741 2.49033 7.06775C2.62251 6.92809 2.72505 6.7631 2.79174 6.58275C2.85844 6.40239 2.88793 6.21039 2.87841 6.01833C2.87841 4.58292 3.34841 2.87167 5.58633 2.87167C7.59341 2.87167 8.49633 4.23292 8.49633 5.19958C8.49633 6.18458 8.36467 6.92625 7.7105 7.57958C7.39716 7.89208 7.09633 8.18542 6.81175 8.46292C5.173 10.06 3.98883 11.2137 3.97216 12.6921C3.94925 14.7529 3.963 15.8333 3.97008 16.2021C3.97076 16.3923 4.0089 16.5805 4.08232 16.7559C4.15574 16.9314 4.263 17.0907 4.39797 17.2247C4.53294 17.3587 4.69299 17.4648 4.86897 17.537C5.04495 17.6091 5.23342 17.6459 5.42362 17.6452C5.61382 17.6445 5.80202 17.6064 5.97748 17.533C6.15294 17.4595 6.31222 17.3523 6.44622 17.2173C6.58023 17.0823 6.68634 16.9223 6.75849 16.7463C6.83065 16.5703 6.86743 16.3819 6.86675 16.1917L6.86591 16.1604C6.85925 15.8021 6.84591 14.7504 6.86841 12.7238C6.87258 12.3746 7.74425 11.5479 8.51341 10.8187C8.8505 10.4992 9.23258 10.1371 9.628 9.74167C11.1184 8.25125 11.418 6.85583 11.418 5.0875C11.418 2.04583 9.06883 0 5.57216 0L5.57008 0.00083367Z" fill="black"/>
</svg>
