<svg width="27" height="14" viewBox="0 0 27 14" fill="none" xmlns="http://www.w3.org/2000/svg">
<path d="M12.4605 0C10.2195 0 8.1135 0.769435 6.5745 2.01685C6.129 0.851042 4.8735 0 3.375 0C2.47989 0 1.62145 0.307065 0.988515 0.853646C0.355579 1.40023 0 2.14155 0 2.91453C0 3.68751 0.355579 4.42883 0.988515 4.97541C1.62145 5.52199 2.47989 5.82906 3.375 5.82906C3.6585 5.82906 3.9285 5.79408 4.1985 5.73579C4.131 6.02724 4.077 6.33035 4.0635 6.64512C4.00416 7.66015 4.20142 8.67417 4.64156 9.61675C5.08171 10.5593 5.75419 11.4078 6.61229 12.1034C7.4704 12.7989 8.49356 13.3248 9.61071 13.6445C10.7279 13.9642 11.9122 14.0701 13.0815 13.9548C16.524 13.6283 19.3995 11.32 20.088 8.39384C20.2905 7.56611 20.2905 6.76171 20.169 5.99227C20.0475 5.29278 20.682 4.6749 21.5055 4.6749H27V0H12.4605ZM3.375 3.49743C2.997 3.49743 2.7 3.24096 2.7 2.91453C2.7 2.5881 2.997 2.33162 3.375 2.33162C3.753 2.33162 4.05 2.5881 4.05 2.91453C4.05 3.24096 3.753 3.49743 3.375 3.49743ZM12.15 10.4923C9.909 10.4923 8.1 8.93011 8.1 6.99487C8.1 5.05962 9.909 3.49743 12.15 3.49743C14.391 3.49743 16.2 5.05962 16.2 6.99487C16.2 8.93011 14.391 10.4923 12.15 10.4923Z" fill="#686868"/>
<path d="M12.42 9.32657C13.9111 9.32657 15.12 8.28267 15.12 6.99495C15.12 5.70723 13.9111 4.66333 12.42 4.66333C10.9288 4.66333 9.71997 5.70723 9.71997 6.99495C9.71997 8.28267 10.9288 9.32657 12.42 9.32657Z" fill="#686868"/>
</svg>
