<svg width="30" height="30" viewBox="0 0 30 30" fill="none" xmlns="http://www.w3.org/2000/svg">
<path fill-rule="evenodd" clip-rule="evenodd" d="M20.4545 10.9091C20.4545 12.3557 19.8798 13.7431 18.8569 14.7661C17.834 15.789 16.4466 16.3637 15 16.3637C13.5533 16.3637 12.1659 15.789 11.143 14.7661C10.1201 13.7431 9.54541 12.3557 9.54541 10.9091C9.54541 9.46247 10.1201 8.07508 11.143 7.05216C12.1659 6.02923 13.5533 5.45456 15 5.45456C16.4466 5.45456 17.834 6.02923 18.8569 7.05216C19.8798 8.07508 20.4545 9.46247 20.4545 10.9091ZM17.7272 10.9091C17.7272 11.6324 17.4399 12.3261 16.9284 12.8376C16.417 13.349 15.7233 13.6364 15 13.6364C14.2766 13.6364 13.5829 13.349 13.0715 12.8376C12.56 12.3261 12.2727 11.6324 12.2727 10.9091C12.2727 10.1858 12.56 9.49209 13.0715 8.98063C13.5829 8.46917 14.2766 8.18183 15 8.18183C15.7233 8.18183 16.417 8.46917 16.9284 8.98063C17.4399 9.49209 17.7272 10.1858 17.7272 10.9091Z" fill="#888888"/>
<path fill-rule="evenodd" clip-rule="evenodd" d="M15 0C6.71591 0 0 6.71591 0 15C0 23.2841 6.71591 30 15 30C23.2841 30 30 23.2841 30 15C30 6.71591 23.2841 0 15 0ZM2.72727 15C2.72727 17.85 3.69955 20.4736 5.32909 22.5573C6.4735 21.0544 7.94986 19.8365 9.64286 18.9986C11.3359 18.1607 13.1997 17.7256 15.0886 17.7273C16.9532 17.7255 18.7935 18.1494 20.4695 18.9665C22.1454 19.7837 23.6127 20.9726 24.7595 22.4427C25.9411 20.8931 26.7366 19.0844 27.0803 17.1663C27.424 15.2481 27.306 13.2757 26.7361 11.4123C26.1662 9.54877 25.1608 7.84779 23.8029 6.45005C22.4451 5.05231 20.774 3.99799 18.9278 3.37433C17.0816 2.75067 15.1135 2.5756 13.1862 2.8636C11.2589 3.1516 9.4279 3.8944 7.84469 5.03053C6.26147 6.16666 4.97156 7.66346 4.08168 9.39709C3.19179 11.1307 2.72752 13.0513 2.72727 15ZM15 27.2727C12.1827 27.277 9.45036 26.3077 7.26545 24.5291C8.14491 23.2701 9.31546 22.2422 10.6775 21.5328C12.0396 20.8233 13.5529 20.4535 15.0886 20.4545C16.6052 20.4533 18.1002 20.814 19.4494 21.5065C20.7987 22.199 21.9632 23.2034 22.8464 24.4364C20.6445 26.2728 17.8672 27.2768 15 27.2727Z" fill="#888888"/>
</svg>
