<svg width="32" height="31" viewBox="0 0 32 31" fill="none" xmlns="http://www.w3.org/2000/svg">
<path d="M16 31C24.8366 31 32 24.0604 32 15.5C32 6.93959 24.8366 0 16 0C7.16344 0 0 6.93959 0 15.5C0 24.0604 7.16344 31 16 31Z" fill="#ED6C30"/>
<path d="M26.0877 21.7036C26.2439 21.8563 26.3315 22.0625 26.3315 22.2775C26.3315 22.4924 26.2439 22.6987 26.0877 22.8514L23.5907 25.2724C23.4331 25.4237 23.2202 25.5086 22.9983 25.5086C22.7764 25.5086 22.5634 25.4237 22.4058 25.2724L15.3601 18.4497L8.31673 25.2724C8.15912 25.4237 7.94619 25.5086 7.72429 25.5086C7.50239 25.5086 7.28947 25.4237 7.13185 25.2724L4.63251 22.8514C4.47632 22.6987 4.38869 22.4924 4.38869 22.2775C4.38869 22.0625 4.47632 21.8563 4.63251 21.7036L11.6759 14.8809L4.63251 8.05812C4.47628 7.905 4.38867 7.69839 4.38867 7.4831C4.38867 7.26781 4.47628 7.0612 4.63251 6.90807L7.13185 4.48931C7.20962 4.4139 7.30197 4.35408 7.40363 4.31326C7.50529 4.27244 7.61425 4.25143 7.72429 4.25143C7.83433 4.25143 7.9433 4.27244 8.04495 4.31326C8.14661 4.35408 8.23896 4.4139 8.31673 4.48931L15.3601 11.312L22.4035 4.48931C22.4812 4.4139 22.5736 4.35408 22.6753 4.31326C22.7769 4.27244 22.8859 4.25143 22.9959 4.25143C23.106 4.25143 23.2149 4.27244 23.3166 4.31326C23.4182 4.35408 23.5106 4.4139 23.5884 4.48931L26.0877 6.90807C26.2439 7.0612 26.3315 7.26781 26.3315 7.4831C26.3315 7.69839 26.2439 7.905 26.0877 8.05812L19.0443 14.8809L26.0877 21.7036Z" fill="white"/>
</svg>
