<svg width="80" height="80" viewBox="0 0 80 80" fill="none" xmlns="http://www.w3.org/2000/svg">
<path opacity="0.3" d="M30 33.3333C32.7614 33.3333 35 31.0948 35 28.3333C35 25.5719 32.7614 23.3333 30 23.3333C27.2386 23.3333 25 25.5719 25 28.3333C25 31.0948 27.2386 33.3333 30 33.3333Z" fill="black"/>
<path opacity="0.3" d="M14.4668 56.6667H45.5335C42.7335 54.7333 35.9668 52.5 30.0001 52.5C24.0335 52.5 17.2668 54.7333 14.4668 56.6667Z" fill="black"/>
<path d="M30.0001 40C36.4334 40 41.6667 34.7667 41.6667 28.3333C41.6667 21.9 36.4334 16.6667 30.0001 16.6667C23.5667 16.6667 18.3334 21.9 18.3334 28.3333C18.3334 34.7667 23.5667 40 30.0001 40ZM30.0001 23.3333C32.7667 23.3333 35.0001 25.5667 35.0001 28.3333C35.0001 31.1 32.7667 33.3333 30.0001 33.3333C27.2334 33.3333 25.0001 31.1 25.0001 28.3333C25.0001 25.5667 27.2334 23.3333 30.0001 23.3333ZM30.0001 45.8333C22.2001 45.8333 6.66675 49.7333 6.66675 57.5V63.3333H53.3334V57.5C53.3334 49.7333 37.8001 45.8333 30.0001 45.8333ZM14.4667 56.6667C17.2667 54.7333 24.0334 52.5 30.0001 52.5C35.9667 52.5 42.7334 54.7333 45.5334 56.6667H14.4667ZM53.4668 46.0333C57.3334 48.8333 60.0001 52.5667 60.0001 57.5V63.3333H73.3334V57.5C73.3334 50.7667 61.6668 46.9333 53.4668 46.0333ZM50.0001 40C56.4334 40 61.6668 34.7667 61.6668 28.3333C61.6668 21.9 56.4334 16.6667 50.0001 16.6667C48.2001 16.6667 46.5334 17.1 45.0001 17.8333C47.1001 20.8 48.3334 24.4333 48.3334 28.3333C48.3334 32.2333 47.1001 35.8667 45.0001 38.8333C46.5334 39.5667 48.2001 40 50.0001 40Z" fill="black"/>
</svg>
