<svg width="24" height="24" viewBox="0 0 24 24" fill="none" xmlns="http://www.w3.org/2000/svg">
<path d="M18 8H8V18H6V8C6 7.46957 6.21071 6.96086 6.58579 6.58579C6.96086 6.21071 7.46957 6 8 6H18V8ZM14 2H4C3.46957 2 2.96086 2.21071 2.58579 2.58579C2.21071 2.96086 2 3.46957 2 4V14H4V4H14V2ZM22 12V20C22 20.5304 21.7893 21.0391 21.4142 21.4142C21.0391 21.7893 20.5304 22 20 22H12C11.4696 22 10.9609 21.7893 10.5858 21.4142C10.2107 21.0391 10 20.5304 10 20V12C10 11.4696 10.2107 10.9609 10.5858 10.5858C10.9609 10.2107 11.4696 10 12 10H20C20.5304 10 21.0391 10.2107 21.4142 10.5858C21.7893 10.9609 22 11.4696 22 12ZM20 15H17V12H15V15H12V17H15V20H17V17H20V15Z" fill="black"/>
</svg>
