<svg width="128" height="128" viewBox="0 0 128 128" fill="none" xmlns="http://www.w3.org/2000/svg">
<path d="M64 124C97.1371 124 124 97.1371 124 64C124 30.8629 97.1371 4 64 4C30.8629 4 4 30.8629 4 64C4 97.1371 30.8629 124 64 124Z" fill="#CC3333"/>
<path d="M60.1 119.2C91.0832 119.2 116.2 94.0832 116.2 63.1C116.2 32.1168 91.0832 7 60.1 7C29.1168 7 4 32.1168 4 63.1C4 94.0832 29.1168 119.2 60.1 119.2Z" fill="#F44336"/>
<path d="M24 29.7C28.5 22.6 38.1 16.7 48.1 14.9C50.6 14.5 53.1 14.3 55.2 15.1C56.8 15.7 58.1 17.2 57.2 18.9C56.5 20.3 54.6 20.9 53.1 21.4C43.7193 24.4955 35.6303 30.615 30.1 38.8C28.1 41.8 25.1 50.1 21.4 48C17.5 45.7001 18.3 38.5 24 29.7Z" fill="#FF8A80"/>
<path d="M104 72H24C21.79 72 20 70.21 20 68V60C20 57.79 21.79 56 24 56H104C106.21 56 108 57.79 108 60V68C108 70.21 106.21 72 104 72Z" fill="#FAFAFA"/>
</svg>
