<svg width="38" height="40" viewBox="0 0 38 40" fill="none" xmlns="http://www.w3.org/2000/svg">
<path d="M12.3137 36.1111L12.2018 34.5483C11.3908 33.9952 10.6439 33.3391 9.97681 32.5939L12.0176 27C12.5425 25.5605 12.8566 25.0222 13.5688 25.5605C15.1119 26.7267 16.8253 27.1839 17.4816 27.6994C19.7025 29.7505 23.8138 30.2689 27.4058 28.5105C28.9453 28.5105 32.3167 30.6333 32.3167 33.5605V36.0861L12.3137 36.1111Z" fill="#92D3F5"/>
<path d="M16.8848 18.8806C16.8848 23.8806 19.4182 26.6584 22.5294 26.6584C25.5759 26.6584 28.2068 23.8806 28.2068 18.8806C28.2194 17.9258 28.0445 16.9789 27.6937 16.1028C26.1542 14.4361 24.1017 11.6584 24.1017 11.6584C22.0491 13.325 20.5096 14.9917 17.4308 15.5472C17.4308 15.5472 16.8848 16.1028 16.8848 18.8806Z" fill="#FADCBC"/>
<path d="M10.3309 31.1056C8.98438 29.3006 7.39979 28.6289 7.14321 27.5178C6.86457 26.3128 5.50473 18.8344 6.01839 16.4733C6.22365 15.065 6.26676 13.6339 6.14668 12.2144C6.11589 11.66 6.57978 9.61001 6.57978 8.49889C6.55474 7.76365 6.61944 7.02804 6.77221 6.31112C7.38183 5.35278 8.24597 5.90445 8.25931 6.58778L8.79247 4.17556C8.88843 3.46445 10.6901 2.94278 10.4284 4.87001L10.6593 3.49223C11.0087 2.70001 11.8806 2.84778 12.0746 3.10723C12.3937 3.55667 12.23 3.96389 12.2059 4.51612C12.2059 4.51612 13.3626 4.50556 13.0629 6.18389C12.9654 6.72945 12.2254 11.8672 12.2254 11.8672C12.4604 11.6128 13.0157 9.25667 13.8285 9.25667C14.9158 9.25667 14.8055 10.1733 14.8055 10.1733C14.8055 10.1733 14.4961 10.9694 14.1482 11.6583C13.6289 12.6867 12.9777 14.7139 12.4645 15.2695C11.6062 15.8883 10.711 16.445 9.78489 16.9361L11.2781 23.7417C11.2781 23.7417 11.3638 24.0406 12.559 24.995" fill="#FADCBC"/>
<path d="M27.7538 16.1539C26.3883 15.6783 23.9734 11.7445 23.9734 11.7445C22.608 13.54 17.4375 15.6256 17.4375 15.6256C15.9011 17.2889 17.4144 23.325 17.4144 23.325C15.3618 23.325 15.3618 19.9917 15.3618 16.1028C15.3618 12.2139 17.4144 8.32501 22.5459 8.32501C27.6773 8.32501 29.7299 12.2139 29.7299 16.1028C29.7299 19.9917 29.7299 23.325 27.6773 23.325C28.3573 22.0733 27.7538 16.1539 27.7538 16.1539Z" fill="#A57939"/>
<path d="M17.4308 23.325C15.3782 23.325 15.3782 19.9917 15.3782 16.1028C15.3782 12.2139 17.4308 8.32501 22.5622 8.32501C27.6937 8.32501 29.7463 12.2139 29.7463 16.1028C29.7463 19.9917 29.7463 23.325 27.6937 23.325" stroke="black" stroke-width="0.833333" stroke-linecap="round" stroke-linejoin="round"/>
<path d="M25.576 18.325C25.576 18.5448 25.5158 18.7596 25.4031 18.9423C25.2903 19.125 25.13 19.2674 24.9425 19.3515C24.7549 19.4356 24.5486 19.4576 24.3495 19.4148C24.1504 19.3719 23.9676 19.2661 23.824 19.1107C23.6805 18.9553 23.5828 18.7573 23.5432 18.5418C23.5036 18.3262 23.5239 18.1028 23.6016 17.8998C23.6792 17.6968 23.8108 17.5232 23.9796 17.4012C24.1483 17.2791 24.3468 17.2139 24.5497 17.2139C24.8219 17.2139 25.083 17.331 25.2754 17.5393C25.4679 17.7477 25.576 18.0303 25.576 18.325Z" fill="black"/>
<path d="M21.4708 18.325C21.4708 18.5448 21.4106 18.7596 21.2978 18.9423C21.1851 19.125 21.0248 19.2674 20.8373 19.3515C20.6497 19.4356 20.4434 19.4576 20.2443 19.4148C20.0452 19.3719 19.8623 19.2661 19.7188 19.1107C19.5753 18.9553 19.4775 18.7573 19.4379 18.5418C19.3983 18.3262 19.4187 18.1028 19.4963 17.8998C19.574 17.6968 19.7056 17.5232 19.8743 17.4012C20.0431 17.2791 20.2415 17.2139 20.4445 17.2139C20.7167 17.2139 20.9777 17.331 21.1702 17.5393C21.3627 17.7477 21.4708 18.0303 21.4708 18.325Z" fill="black"/>
<path d="M16.8848 18.8805C16.8848 23.8805 19.4182 26.6583 22.5294 26.6583C25.5759 26.6583 28.2068 23.8805 28.2068 18.8805C28.2194 17.9257 28.0445 16.9789 27.6937 16.1028C26.1542 14.4361 24.1017 11.6583 24.1017 11.6583C22.0491 13.325 20.5096 14.9917 17.4308 15.5472C17.4308 15.5472 16.8848 16.1028 16.8848 18.8805Z" stroke="black" stroke-width="0.833333" stroke-linejoin="round"/>
<path d="M21.0229 22.7694C21.4991 23.0349 22.0269 23.1734 22.5624 23.1734C23.0979 23.1734 23.6257 23.0349 24.1018 22.7694" stroke="black" stroke-width="0.833333" stroke-linecap="round" stroke-linejoin="round"/>
<path d="M12.3035 35.55C12.3516 35.281 12.3373 35.0032 12.2619 34.7416C12.1865 34.48 12.0524 34.2428 11.8715 34.0511C10.2509 32.6922 9.73779 32.2167 9.73779 32.2167L12.3035 25.55" stroke="black" stroke-width="0.833333" stroke-linecap="round" stroke-linejoin="round"/>
<path d="M11.1277 3.76779C10.7634 5.94779 10.5504 7.45168 10.2502 9.99446" stroke="black" stroke-width="0.833333" stroke-linecap="round" stroke-linejoin="round"/>
<path d="M11.8252 11.8695C11.9755 10.6684 12.3886 8.11946 12.6242 5.55002" stroke="black" stroke-width="0.833333" stroke-linecap="round" stroke-linejoin="round"/>
<path d="M32.3162 35.55C32.3162 35.55 32.3624 34.3 32.3624 33.8833C32.3624 29.9944 27.6979 28.3278 27.6979 28.3278C24.1059 29.4389 22.0533 29.4389 19.4875 28.8833C17.8065 28.5194 14.3422 26.3333 11.7903 24.4389C11.7903 24.4389 9.78394 19.1611 9.78394 16.9389C9.78394 16.615 12.6329 15.8311 13.376 13.3278C13.7772 11.9772 14.3053 10.1755 14.3053 10.1755" stroke="black" stroke-width="0.833333" stroke-linecap="round" stroke-linejoin="round"/>
<path d="M8.19824 9.99443C8.63955 7.17443 9.00081 5.20498 9.22454 4.43887" stroke="black" stroke-width="0.833333" stroke-linecap="round" stroke-linejoin="round"/>
<path d="M10.3298 30.6783C7.76409 28.4561 6.94921 27.8339 6.65877 26.1055C5.63247 19.9944 6.14562 18.0044 6.14562 16.1055C6.14562 15.55 6.15332 16.1055 6.15332 12.7722C6.15383 12.3211 6.414 10.3311 6.65877 8.88332C6.77364 8.12869 6.94526 7.38548 7.17191 6.6611" stroke="black" stroke-width="0.833333" stroke-linecap="round" stroke-linejoin="round"/>
</svg>
