<svg width="25" height="25" viewBox="0 0 25 25" fill="none" xmlns="http://www.w3.org/2000/svg">
<path d="M4.16663 12.4999C4.16663 12.7762 4.27637 13.0411 4.47172 13.2365C4.66707 13.4318 4.93203 13.5416 5.20829 13.5416H13.1145L10.7187 15.927C10.6211 16.0238 10.5436 16.139 10.4907 16.266C10.4378 16.3929 10.4106 16.5291 10.4106 16.6666C10.4106 16.8041 10.4378 16.9403 10.4907 17.0672C10.5436 17.1941 10.6211 17.3093 10.7187 17.4062C10.8155 17.5038 10.9308 17.5813 11.0577 17.6342C11.1846 17.6871 11.3208 17.7143 11.4583 17.7143C11.5958 17.7143 11.732 17.6871 11.8589 17.6342C11.9858 17.5813 12.101 17.5038 12.1979 17.4062L16.3645 13.2395C16.4594 13.1404 16.5337 13.0236 16.5833 12.8958C16.6875 12.6421 16.6875 12.3577 16.5833 12.1041C16.5337 11.9762 16.4594 11.8594 16.3645 11.7603L12.1979 7.59367C12.1008 7.49655 11.9854 7.4195 11.8586 7.36694C11.7317 7.31438 11.5956 7.28732 11.4583 7.28732C11.3209 7.28732 11.1849 7.31438 11.058 7.36694C10.9311 7.4195 10.8158 7.49655 10.7187 7.59367C10.6216 7.69079 10.5445 7.80609 10.492 7.93299C10.4394 8.05989 10.4124 8.1959 10.4124 8.33325C10.4124 8.47061 10.4394 8.60661 10.492 8.73351C10.5445 8.86041 10.6216 8.97571 10.7187 9.07284L13.1145 11.4583H5.20829C4.93203 11.4583 4.66707 11.568 4.47172 11.7633C4.27637 11.9587 4.16663 12.2237 4.16663 12.4999ZM17.7083 2.08325H7.29163C6.46282 2.08325 5.66797 2.41249 5.08192 2.99854C4.49587 3.58459 4.16663 4.37945 4.16663 5.20825V8.33325C4.16663 8.60952 4.27637 8.87447 4.47172 9.06982C4.66707 9.26517 4.93203 9.37492 5.20829 9.37492C5.48456 9.37492 5.74951 9.26517 5.94486 9.06982C6.14021 8.87447 6.24996 8.60952 6.24996 8.33325V5.20825C6.24996 4.93198 6.35971 4.66703 6.55506 4.47168C6.75041 4.27633 7.01536 4.16659 7.29163 4.16659H17.7083C17.9846 4.16659 18.2495 4.27633 18.4449 4.47168C18.6402 4.66703 18.75 4.93198 18.75 5.20825V19.7916C18.75 20.0679 18.6402 20.3328 18.4449 20.5282C18.2495 20.7235 17.9846 20.8333 17.7083 20.8333H7.29163C7.01536 20.8333 6.75041 20.7235 6.55506 20.5282C6.35971 20.3328 6.24996 20.0679 6.24996 19.7916V16.6666C6.24996 16.3903 6.14021 16.1254 5.94486 15.93C5.74951 15.7347 5.48456 15.6249 5.20829 15.6249C4.93203 15.6249 4.66707 15.7347 4.47172 15.93C4.27637 16.1254 4.16663 16.3903 4.16663 16.6666V19.7916C4.16663 20.6204 4.49587 21.4152 5.08192 22.0013C5.66797 22.5873 6.46282 22.9166 7.29163 22.9166H17.7083C18.5371 22.9166 19.3319 22.5873 19.918 22.0013C20.5041 21.4152 20.8333 20.6204 20.8333 19.7916V5.20825C20.8333 4.37945 20.5041 3.58459 19.918 2.99854C19.3319 2.41249 18.5371 2.08325 17.7083 2.08325Z" fill="#FF0000" fill-opacity="0.74"/>
</svg>
