<svg width="30" height="30" viewBox="0 0 30 30" fill="none" xmlns="http://www.w3.org/2000/svg">
<path d="M29.3779 14.7592L16.5917 1.22811L15.7347 0.320671C15.5394 0.115276 15.2753 0 15.0001 0C14.7248 0 14.4607 0.115276 14.2655 0.320671L0.622239 14.7592C0.422144 14.9702 0.264006 15.2215 0.157159 15.4984C0.0503114 15.7752 -0.00307949 16.0718 0.000137159 16.3708C0.0133734 17.6041 0.982925 18.5886 2.14771 18.5886H3.55406V30H26.4461V18.5886H27.8822C28.448 18.5886 28.9808 18.3539 29.3812 17.93C29.5783 17.7219 29.7346 17.4745 29.8408 17.202C29.947 16.9296 30.0011 16.6375 30 16.3428C30 15.7472 29.7783 15.1831 29.3779 14.7592ZM16.8531 27.4774H13.147V20.33H16.8531V27.4774ZM24.0635 16.066V27.4774H18.9709V19.4891C18.9709 18.7148 18.3786 18.0876 17.6473 18.0876H12.3528C11.6215 18.0876 11.0292 18.7148 11.0292 19.4891V27.4774H5.93657V16.066H2.75988L15.0034 3.11307L15.7678 3.92241L27.2435 16.066H24.0635Z" fill="#888888"/>
</svg>
