<svg width="30" height="30" viewBox="0 0 30 30" fill="none" xmlns="http://www.w3.org/2000/svg">
<path d="M29.6875 26.9318H2.8125V0.340909C2.8125 0.153409 2.67188 0 2.5 0H0.3125C0.140625 0 0 0.153409 0 0.340909V29.6591C0 29.8466 0.140625 30 0.3125 30H29.6875C29.8594 30 30 29.8466 30 29.6591V27.2727C30 27.0852 29.8594 26.9318 29.6875 26.9318ZM6.94531 20.3565C7.06641 20.4886 7.26172 20.4886 7.38672 20.3565L12.7891 14.4929L17.7734 19.9645C17.8945 20.0966 18.0938 20.0966 18.2148 19.9645L28.9727 8.23295C29.0938 8.10085 29.0938 7.88352 28.9727 7.75142L27.4258 6.06392C27.367 6.00048 27.2877 5.96489 27.2051 5.96489C27.1224 5.96489 27.0431 6.00048 26.9844 6.06392L18 15.8608L13.0234 10.3977C12.9647 10.3343 12.8854 10.2987 12.8027 10.2987C12.7201 10.2987 12.6408 10.3343 12.582 10.3977L5.40234 18.1832C5.34419 18.2473 5.31156 18.3338 5.31156 18.424C5.31156 18.5142 5.34419 18.6007 5.40234 18.6648L6.94531 20.3565Z" fill="#888888"/>
</svg>
