<svg width="20" height="20" viewBox="0 0 20 20" fill="none" xmlns="http://www.w3.org/2000/svg">
<path d="M15.04 8.95H19.9C19.7423 7.38209 19.2145 5.87404 18.36 4.55C17.4946 4.9638 16.7413 5.57948 16.1635 6.3452C15.5858 7.11092 15.2004 8.00427 15.04 8.95ZM4.86 8.95C4.69957 8.00427 4.31425 7.11092 3.73648 6.3452C3.1587 5.57948 2.4054 4.9638 1.54 4.55C0.685519 5.87404 0.157704 7.38209 0 8.95H4.86ZM13.02 8.95C13.1765 7.70085 13.6258 6.50632 14.3313 5.46368C15.0368 4.42104 15.9786 3.55977 17.08 2.95C15.4458 1.27833 13.276 0.234159 10.95 0V8.95H13.02ZM6.88 8.95H8.95V0C6.62337 0.231989 4.45292 1.2765 2.82 2.95C3.92138 3.55977 4.86317 4.42104 5.5687 5.46368C6.27422 6.50632 6.72351 7.70085 6.88 8.95ZM13.02 10.95H10.95V19.9C13.2766 19.668 15.4471 18.6235 17.08 16.95C15.9786 16.3402 15.0368 15.479 14.3313 14.4363C13.6258 13.3937 13.1765 12.1991 13.02 10.95ZM1.54 15.35C2.40334 14.9334 3.15488 14.3168 3.73227 13.5516C4.30967 12.7864 4.69627 11.8945 4.86 10.95H0C0.16 12.56 0.71 14.06 1.54 15.35ZM15.04 10.95C15.2004 11.8957 15.5858 12.7891 16.1635 13.5548C16.7413 14.3205 17.4946 14.9362 18.36 15.35C19.2145 14.026 19.7423 12.5179 19.9 10.95H15.04ZM6.88 10.95C6.72351 12.1991 6.27422 13.3937 5.5687 14.4363C4.86317 15.479 3.92138 16.3402 2.82 16.95C4.45423 18.6217 6.62398 19.6658 8.95 19.9V10.95H6.88Z" fill="#850A11"/>
</svg>
