<svg width="30" height="20" viewBox="0 0 30 20" fill="none" xmlns="http://www.w3.org/2000/svg">
<path d="M20.605 9.97L28.2938 3.29V16.5738L20.605 9.97ZM10.6975 11.1012L13.3975 13.445C13.8213 13.805 14.3738 14.0225 14.9775 14.0225H14.9987H14.9975H15.015C15.62 14.0225 16.1725 13.8038 16.6012 13.4412L16.5975 13.4438L19.2975 11.1L27.505 18.1487H2.49375L10.6975 11.1012ZM2.4825 1.70625H27.52L15.4938 12.1512C15.3585 12.2582 15.1912 12.3163 15.0188 12.3162H15.0013H15.0025H14.985C14.812 12.3165 14.644 12.2578 14.5088 12.15L14.51 12.1512L2.4825 1.70625ZM1.70625 3.28875L9.39375 9.96875L1.70625 16.5687V3.28875ZM28.7062 0.2375C28.4062 0.0875001 28.0537 0 27.68 0H2.32375C1.96145 8.65437e-05 1.60413 0.0843883 1.28 0.24625L1.29375 0.24C0.905717 0.431389 0.578935 0.727473 0.350318 1.09481C0.121701 1.46214 0.000359185 1.88608 0 2.31875L0 17.5338C0.000661755 18.1495 0.245566 18.7399 0.680975 19.1753C1.11639 19.6107 1.70674 19.8556 2.3225 19.8563H27.6763C28.292 19.8556 28.8824 19.6107 29.3178 19.1753C29.7532 18.7399 29.9981 18.1495 29.9988 17.5338V2.32375V2.31875C29.9988 1.41 29.475 0.6225 28.7125 0.24375L28.6987 0.2375H28.7062Z" fill="white"/>
</svg>
